<?xml version="1.0" encoding="utf-8"?>
<!-- Generator: Adobe Illustrator 24.1.0, SVG Export Plug-In . SVG Version: 6.00 Build 0)  -->
<svg version="1.1" id="Layer_1" xmlns="http://www.w3.org/2000/svg" xmlns:xlink="http://www.w3.org/1999/xlink" x="0px" y="0px"
	 viewBox="0 0 227.7 44.8" style="enable-background:new 0 0 227.7 44.8;" xml:space="preserve">
<style type="text/css">
	.st0{fill:#FFFFFF;}
</style>
<rect x="45.8" y="7.3" width="134.5" height="26"/>
<g>
	<polygon class="st0" points="168.1,23.1 172,23.1 170,16.7 	"/>
	<polygon class="st0" points="54.2,23.1 58.1,23.1 56.1,16.7 	"/>
	<path class="st0" d="M205.5,4.2H23.6c-6.6,0-12,5.4-12,12v12c0,6.6,5.4,12,12,12h181.8c6.6,0,12-5.4,12.1-12v-12
		C217.5,9.6,212.1,4.2,205.5,4.2z M169.3,11.2l1.4-1.6l0.4-0.4c0.1-0.1,0.2-0.1,0.4-0.1h2c0.3,0,0.4,0.1,0.4,0.3
		c0,0.1-0.1,0.3-0.4,0.5l-1.7,1.6c-0.2,0.2-0.3,0.3-0.5,0.3c-0.1,0.1-0.3,0.1-0.4,0.1h-1.5V12c-0.3,0-0.4-0.1-0.4-0.3
		C169,11.6,169.1,11.4,169.3,11.2z M63,28.8h-2.4c-0.2,0-0.4,0-0.5-0.1s-0.2-0.2-0.3-0.5l-0.9-2.9h-5.3l-0.9,2.9
		c-0.1,0.2-0.2,0.4-0.3,0.5s-0.3,0.1-0.5,0.1h-2.3v0.1c-0.3,0-0.4-0.1-0.4-0.3c0-0.1,0-0.2,0.1-0.3c0.1-0.1,0.1-0.2,0.1-0.4
		l4.9-13.7c0.1-0.1,0.1-0.3,0.2-0.3l0.2-0.2c0.1,0,0.2-0.1,0.4-0.1h2.4c0.2,0,0.4,0,0.5,0.1s0.2,0.2,0.3,0.4l4.9,13.7
		c0,0.1,0.1,0.3,0.1,0.4s0.1,0.2,0.1,0.3C63.4,28.7,63.3,28.8,63,28.8z M77,27.9c-1.2,0.9-2.7,1.4-4.5,1.4c-1.5,0-2.8-0.2-4.1-0.7
		c-0.2-0.1-0.3-0.1-0.4-0.3s-0.1-0.3-0.1-0.5v-1.3c0-0.3,0.1-0.5,0.4-0.5h0.2c0.1,0,0.2,0,0.2,0.1c1.4,0.4,2.7,0.5,3.9,0.5
		c0.9,0,1.5-0.2,2-0.5s0.7-0.8,0.7-1.4c0-0.5-0.1-0.8-0.4-1.1c-0.3-0.3-0.9-0.6-1.7-0.9l-1.7-0.6c-1.3-0.5-2.2-1.1-2.8-1.8
		c-0.6-0.7-0.9-1.6-0.9-2.7c0-1.4,0.5-2.5,1.5-3.3s2.4-1.2,4.1-1.2c1.2,0,2.5,0.2,3.7,0.6c0.2,0.1,0.3,0.1,0.4,0.3s0.1,0.3,0.1,0.5
		V16c0,0.3-0.1,0.5-0.4,0.5c-0.1,0-0.2,0-0.5-0.1L75.1,16c-0.6-0.1-1.1-0.1-1.5-0.1c-1.7,0-2.6,0.6-2.6,1.7c0,0.4,0.2,0.7,0.5,1
		s0.9,0.5,1.7,0.8l1.6,0.6c1.4,0.5,2.3,1.1,2.9,1.7c0.6,0.7,0.9,1.5,0.9,2.6C78.6,25.8,78.1,27,77,27.9z M92.5,27.9
		c-1.1,0.9-2.6,1.4-4.5,1.4c-1.5,0-2.8-0.2-4.1-0.7c-0.2-0.1-0.3-0.1-0.4-0.3s-0.1-0.3-0.1-0.5v-1.3c0-0.3,0.1-0.5,0.4-0.5H84
		c0.1,0,0.2,0,0.2,0.1c1.4,0.4,2.7,0.5,3.9,0.5c0.9,0,1.5-0.2,2-0.5s0.7-0.8,0.7-1.4c0-0.5-0.1-0.8-0.4-1.1
		c-0.3-0.3-0.9-0.6-1.7-0.9L87,22.1c-1.3-0.5-2.2-1.1-2.8-1.8c-0.6-0.7-0.9-1.6-0.9-2.7c0-1.4,0.5-2.5,1.5-3.3s2.4-1.2,4.1-1.2
		c1.2,0,2.5,0.2,3.7,0.6c0.2,0.1,0.3,0.1,0.4,0.3s0.1,0.3,0.1,0.5V16c0,0.3-0.1,0.5-0.4,0.5c-0.1,0-0.2,0-0.5-0.1L90.6,16
		c-0.6-0.1-1.1-0.1-1.5-0.1c-1.7,0-2.6,0.6-2.6,1.7c0,0.4,0.2,0.7,0.5,1s0.9,0.5,1.7,0.8l1.6,0.6c1.4,0.5,2.3,1.1,2.9,1.7
		c0.6,0.7,0.9,1.5,0.9,2.6C94.1,25.8,93.6,27,92.5,27.9z M102.9,28.3c0,0.2,0,0.3-0.1,0.4s-0.2,0.1-0.4,0.1h-2.2v0.1
		c-0.2,0-0.3,0-0.4-0.1s-0.1-0.2-0.1-0.4V14.2c0-0.2,0-0.3,0.1-0.4c0.1-0.1,0.2-0.1,0.4-0.1h2.2c0.2,0,0.3,0,0.4,0.1
		s0.1,0.2,0.1,0.4V28.3z M121.8,28.3c0,0.2,0,0.3-0.1,0.4s-0.2,0.1-0.4,0.1H119c-0.2,0-0.4,0-0.5-0.1s-0.2-0.2-0.3-0.4l-5.9-10.1v10
		c0,0.2,0,0.3-0.1,0.4s-0.2,0.1-0.4,0.1h-1.9v0.2c-0.2,0-0.3,0-0.4-0.1s-0.1-0.2-0.1-0.4V14.2c0-0.2,0-0.3,0.1-0.4s0.2-0.1,0.4-0.1
		h2.4c0.2,0,0.4,0,0.5,0.1s0.2,0.2,0.3,0.4l5.9,10.2V14.2c0-0.2,0-0.3,0.1-0.4c0.1-0.1,0.2-0.1,0.4-0.1h1.8c0.2,0,0.3,0,0.4,0.1
		s0.1,0.2,0.1,0.4V28.3z M138.3,15.7c0,0.2,0,0.3-0.1,0.4s-0.2,0.1-0.4,0.1h-6.2v3.6h4.9c0.2,0,0.3,0,0.4,0.1
		c0.1,0.1,0.1,0.2,0.1,0.4v1.5c0,0.2,0,0.3-0.1,0.4s-0.2,0.1-0.4,0.1h-4.9v4h6.2c0.2,0,0.3,0,0.4,0.1c0.1,0.1,0.1,0.2,0.1,0.4v1.5
		c0,0.2,0,0.3-0.1,0.4s-0.2,0.1-0.4,0.1h-8.9v0.1c-0.2,0-0.3,0-0.4-0.1s-0.1-0.2-0.1-0.4V14.2c0-0.2,0-0.3,0.1-0.4
		c0.1-0.1,0.2-0.1,0.4-0.1h8.9c0.2,0,0.3,0,0.4,0.1c0.1,0.1,0.1,0.2,0.1,0.4V15.7z M158.7,23.9c0,3.6-1.6,5.4-5,5.4
		c-0.9,0-1.6-0.1-2.3-0.4c-0.2-0.1-0.3-0.1-0.4-0.2c-0.1-0.1-0.1-0.3-0.1-0.5v-1.4c0-0.3,0.1-0.5,0.4-0.5c0.1,0,0.2,0,0.5,0.1
		c0.5,0.1,1,0.2,1.5,0.2c0.8,0,1.4-0.2,1.7-0.6s0.5-1,0.5-2v-9.8c0-0.2,0-0.3,0.1-0.4c0.1-0.1,0.2-0.1,0.4-0.1h2.2
		c0.2,0,0.3,0,0.4,0.1s0.1,0.2,0.1,0.4L158.7,23.9L158.7,23.9z M176.9,28.8h-2.4c-0.2,0-0.4,0-0.5-0.1s-0.2-0.2-0.3-0.5l-0.9-2.9
		h-5.3l-0.9,2.9c-0.1,0.2-0.2,0.4-0.3,0.5s-0.3,0.1-0.5,0.1h-2.3v0.1c-0.3,0-0.4-0.1-0.4-0.3c0-0.1,0-0.2,0.1-0.3
		c0-0.1,0.1-0.2,0.1-0.4l4.9-13.7c0.1-0.1,0.1-0.3,0.2-0.3l0.2-0.2c0.1-0.1,0.2-0.1,0.4-0.1h2.4c0.2,0,0.4,0,0.5,0.1
		s0.2,0.2,0.3,0.4l4.9,13.7c0,0.1,0.1,0.3,0.1,0.4s0.1,0.2,0.1,0.3C177.3,28.7,177.2,28.8,176.9,28.8z"/>
</g>
</svg>
