<?xml version="1.0" encoding="utf-8"?>
<!-- Generator: Adobe Illustrator 24.1.0, SVG Export Plug-In . SVG Version: 6.00 Build 0)  -->
<svg version="1.1" id="Layer_1" xmlns="http://www.w3.org/2000/svg" xmlns:xlink="http://www.w3.org/1999/xlink" x="0px" y="0px"
	 viewBox="0 0 870 369" style="enable-background:new 0 0 870 369;" xml:space="preserve">
<style type="text/css">
	.st0{fill-rule:evenodd;clip-rule:evenodd;fill:#FFFFFF;}
</style>
<path class="st0" d="M210.9,271.9v1.4c0.2,1.2,0.8,2.4,1.9,3.5C272,334.4,350.2,369,437.1,369c62,0,134-21,183.6-60.5
	c8.2-6.6,1.2-16.3-7.2-12.5c-55.7,25.5-116.1,37.8-171.2,37.8c-81.6,0-160.6-24.1-224.4-64.2c-1.2-0.7-2.2-1-3.2-1
	C212.7,268.6,211.2,270,210.9,271.9 M579.9,278.1c-1.8,1.3-2.7,2.9-2.9,4.2v0.8c0.2,1.5,1.6,2.5,4.1,2.2c16-2.1,51.6-6.6,58,2.1
	s-7.1,44.7-13,60.8c-1.8,4.8,2.1,6.8,6.2,3.1c26.7-23.9,33.5-74,28.1-81.3c-2.6-3.5-14.8-6.7-30-6.7
	C614.1,263.3,594.5,267,579.9,278.1"/>
</svg>
