<?xml version="1.0" encoding="utf-8"?>
<!-- Generator: Adobe Illustrator 24.1.0, SVG Export Plug-In . SVG Version: 6.00 Build 0)  -->
<svg version="1.1" id="Layer_1" xmlns="http://www.w3.org/2000/svg" xmlns:xlink="http://www.w3.org/1999/xlink" x="0px" y="0px"
	 viewBox="0 0 870 369" style="enable-background:new 0 0 870 369;" xml:space="preserve">
<style type="text/css">
	.st0{fill:#FFFFFF;}
</style>
<path class="st0" d="M103.2,225.7c-1.4,0-2.5-0.3-3.2-1s-1-1.7-1-3.2V145c0-1.5,0.3-2.6,1-3.2s1.7-0.9,3.2-0.9h12
	c2.5,0,4.1,1.2,4.6,3.7l2.2,9c4.4-4.9,8.6-8.3,12.5-10.4c3.9-2,8.1-3.1,12.5-3.1h2.3c1.5,0,2.7,0.3,3.3,0.9c0.7,0.6,1,1.7,1,3.2
	v13.9c0,1.4-0.3,2.5-0.9,3.2s-1.7,1-3.2,1c-0.8,0-1.8-0.1-3-0.2s-2.8-0.2-4.6-0.2c-2.5,0-5.6,0.4-9.3,1.1s-6.8,1.6-9.3,2.7v55.8
	c0,1.4-0.3,2.5-0.9,3.2s-1.7,1-3.2,1H103.2 M168.5,225.7c-1.4,0-2.5-0.3-3.2-1s-1-1.7-1-3.2V145c0-1.5,0.3-2.6,1-3.2
	s1.7-0.9,3.2-0.9h15.9c1.5,0,2.6,0.3,3.2,0.9s0.9,1.7,0.9,3.2v76.5c0,1.4-0.3,2.5-0.9,3.2s-1.7,1-3.2,1H168.5 M176.5,127.8
	c-4.2,0-7.6-1.2-10.1-3.5s-3.8-5.5-3.8-9.5s1.3-7.1,3.8-9.5c2.5-2.3,5.9-3.5,10.1-3.5s7.6,1.2,10.1,3.5s3.8,5.5,3.8,9.5
	s-1.3,7.1-3.8,9.5C184.1,126.6,180.7,127.8,176.5,127.8z M213,225.7c-1.4,0-2.5-0.3-3.2-1s-1-1.7-1-3.2V145c0-1.5,0.3-2.6,1-3.2
	s1.7-0.9,3.2-0.9h12c2.5,0,4.1,1.2,4.6,3.7l1.3,4.5c5.9-3.9,11.1-6.6,15.9-8.2c4.7-1.6,9.5-2.4,14.5-2.4c10,0,17,3.5,21.1,10.6
	c5.6-3.8,11-6.5,15.9-8.1s10.1-2.5,15.4-2.5c7.7,0,13.7,2.2,18,6.5s6.4,10.3,6.4,18.1v58.6c0,1.4-0.3,2.5-0.9,3.2s-1.7,1-3.2,1
	h-15.9c-1.4,0-2.5-0.3-3.2-1s-1-1.7-1-3.2v-53.3c0-7.5-3.4-11.3-10.1-11.3c-6,0-12,1.4-18.1,4.3v60.3c0,1.4-0.3,2.5-0.9,3.2
	s-1.7,1-3.2,1h-15.9c-1.4,0-2.5-0.3-3.2-1s-1-1.7-1-3.2v-53.3c0-7.5-3.4-11.3-10.1-11.3c-6.2,0-12.3,1.5-18.3,4.5v60.1
	c0,1.4-0.3,2.5-0.9,3.2s-1.7,1-3.2,1h-16 M405.2,166.2c0-8.1-5.7-10.4-12.7-10.4c-4.6,0-9.1,1.7-12.2,5c-3,3.3-4.8,8.2-5.6,14.5
	c0,0,12.4,2.3,21.4,0.8C400.8,175.3,405.2,172.7,405.2,166.2 M395.1,228.4c-13.5,0-23.8-3.2-32.1-11.6c-5.4-5.5-10.5-15.8-10.5-33.3
	c0-14.2,4.5-25,11.8-32.8c7.3-7.9,18.5-11.5,29-11.5c13.2,0,21,3,26.9,9c1,1,7,7.2,7,17.2c0,3.4,0.1,7-2.2,12
	c-1.6,3.4-4,5.5-4.6,6.1c-9.8,9-29,8.4-35.5,8l-10.5-1.6c0.7,7.3,2.7,13,7.2,16.2c4.2,3.1,8.8,4.3,18.2,4.3c4.7,0,11-0.9,19.1-3
	c0.4-0.1,1.3-0.3,1.6-0.4c0.2,0,1-0.1,1.5,0.1c0.9,0.3,1.9,1.1,1.9,3.5v7.6c0,1.8-0.2,3-0.7,3.7s-1.5,1.4-2.9,2
	C411.7,226.9,403.9,228.4,395.1,228.4L395.1,228.4z M751.9,166.2c0-8.1-5.7-10.4-12.7-10.4c-4.6,0-9.1,1.7-12.2,5
	c-3,3.3-4.8,8.2-5.6,14.5c0,0,12.4,2.3,21.4,0.8C747.5,175.3,751.9,172.7,751.9,166.2 M741.8,228.4c-13.5,0-23.8-3.2-32.1-11.6
	c-5.4-5.5-10.5-15.8-10.5-33.3c0-14.2,4.5-25,11.8-32.8c7.3-7.9,18.5-11.5,29-11.5c13.2,0,21,3,26.9,9c1,1,7,7.2,7,17.2
	c0,3.4,0.1,7-2.2,12c-1.6,3.4-4,5.5-4.6,6.1c-9.8,9-29,8.4-35.5,8l-10.5-1.6c0.7,7.3,2.7,13,7.2,16.2c4.2,3.1,8.8,4.3,18.2,4.3
	c4.7,0,11-0.9,19.1-3c0.4-0.1,1.3-0.3,1.6-0.4c0.2,0,1-0.1,1.5,0.1c0.9,0.3,1.9,1.1,1.9,3.5v7.6c0,1.8-0.2,3-0.7,3.7s-1.5,1.4-2.9,2
	C758.5,226.9,750.6,228.4,741.8,228.4z M500.3,225.7c-1.1,0-2-0.1-2.7-0.4s-1.3-0.7-1.8-1.3s-1-1.5-1.4-2.6L466,147.5l-0.8-2.3
	c-0.2-0.7-0.3-1.3-0.3-1.8c0-1.7,1.1-2.5,3.3-2.5h16.6c1.8,0,3.1,0.3,3.9,1s1.5,1.8,1.9,3.3l17.1,58.8l17.4-58.8
	c0.4-1.5,1.1-2.7,1.9-3.3s2.1-1,3.9-1H547c2.2,0,3.3,0.8,3.3,2.5c0,0.6-0.1,1.2-0.3,1.8c-0.2,0.7-0.5,1.4-0.8,2.3l-28.4,73.9
	c-0.4,1.1-0.9,2-1.4,2.6s-1.1,1.1-1.7,1.3c-0.7,0.3-1.6,0.4-2.8,0.4L500.3,225.7 M564.7,225.7c-1.4,0-2.5-0.3-3.2-1s-1-1.7-1-3.2
	V145c0-1.5,0.3-2.6,1-3.2s1.7-0.9,3.2-0.9h15.9c1.5,0,2.6,0.3,3.2,0.9s0.9,1.7,0.9,3.2v76.5c0,1.4-0.3,2.5-0.9,3.2s-1.7,1-3.2,1
	H564.7 M572.7,127.8c-4.2,0-7.6-1.2-10.1-3.5s-3.8-5.5-3.8-9.5s1.3-7.1,3.8-9.5c2.5-2.3,5.9-3.5,10.1-3.5s7.6,1.2,10.1,3.5
	s3.8,5.5,3.8,9.5s-1.3,7.1-3.8,9.5C580.2,126.6,576.9,127.8,572.7,127.8z M643.5,209.3c5.3,0,10.4-1.5,15.3-4.6v-43.8
	c-4.8-2.8-10.2-4.1-16.4-4.1c-5.9,0-10.2,2.2-13.1,6.6s-4.3,11-4.3,19.8c0,8.9,1.5,15.4,4.6,19.8
	C632.5,207.2,637.2,209.3,643.5,209.3 M635.6,227.6c-7.2,0-13.4-1.9-18.8-5.6c-5.3-3.7-9.4-8.9-12.2-15.4
	c-2.8-6.6-4.2-14.2-4.2-22.8c0-13.7,3.3-24.7,9.8-33c6.5-8.2,15.2-12.4,25.9-12.4c8.7,0,16.3,2.5,22.7,7.5v-38.8
	c0-1.5,0.3-2.6,1-3.2s1.7-0.9,3.2-0.9h15.9c1.5,0,2.6,0.3,3.2,0.9s0.9,1.7,0.9,3.2v114.5c0,1.4-0.3,2.5-0.9,3.2s-1.7,1-3.2,1h-13.3
	c-1.3,0-2.4-0.3-3.1-0.8c-0.7-0.6-1.2-1.5-1.6-2.8l-1-3.8C653.1,224.5,645,227.6,635.6,227.6L635.6,227.6z M827.4,209.6
	c11.6,0,17.4-8.8,17.4-26.4c0-17.5-5.8-26.2-17.4-26.2s-17.4,8.7-17.4,26.2C810,200.8,815.8,209.6,827.4,209.6 M827.4,228.2
	c-13.2,0-23.5-4-30.9-11.9s-11.1-19-11.1-33.1s3.7-25,11.1-33c7.4-7.9,17.7-11.9,30.9-11.9s23.5,4,30.9,11.9s11.1,18.9,11.1,33
	c0,14.2-3.7,25.2-11.1,33.1C850.9,224.3,840.6,228.2,827.4,228.2L827.4,228.2z M40.5,209.3c6.2,0,10.8-2.1,13.7-6.3
	s4.4-10.8,4.4-19.9c0-9.2-1.4-15.9-4.3-20.1s-7.5-6.3-13.8-6.3c-5.8,0-11.2,1.5-16.3,4.5v43.7C29.1,207.8,34.5,209.3,40.5,209.3
	 M4.1,259.9c-1.4,0-2.5-0.3-3.2-0.9s-1-1.7-1-3.2V145.1c0-1.5,0.3-2.6,1-3.2s1.7-0.9,3.2-0.9h12c2.5,0,4.1,1.2,4.6,3.7l1.2,4.3
	c3.3-3.2,7.3-5.8,12-7.6c4.7-1.9,9.5-2.8,14.4-2.8c10.7,0,19.2,3.9,25.5,11.8c6.2,7.9,9.4,18.5,9.4,31.9c0,9.2-1.6,17.2-4.6,24.1
	c-3.1,6.9-7.3,12.1-12.6,15.9c-5.3,3.7-11.4,5.6-18.3,5.6c-4.5,0-8.9-0.7-12.9-2.2c-4.1-1.4-7.6-3.4-10.5-6v36.4
	c0,1.5-0.3,2.6-0.9,3.2s-1.7,0.9-3.2,0.9H4.1V259.9z"/>
</svg>
