<?xml version="1.0" encoding="utf-8"?>
<!-- Generator: Adobe Illustrator 24.1.0, SVG Export Plug-In . SVG Version: 6.00 Build 0)  -->
<svg version="1.1" id="Layer_1" xmlns="http://www.w3.org/2000/svg" xmlns:xlink="http://www.w3.org/1999/xlink" x="0px" y="0px"
	 viewBox="0 0 870 369" style="enable-background:new 0 0 870 369;" xml:space="preserve">
<style type="text/css">
	.st0{fill:#FFFFFF;}
</style>
<path class="st0" d="M263.4,44.1c1.7,0,3.4-0.4,5.1-1.1c1.8-0.7,3.4-1.7,4.9-3v-8.6c-2.9-0.5-5.5-0.7-7.8-0.7
	c-5.8,0-8.6,2.3-8.6,6.9c0,2.1,0.6,3.6,1.7,4.8S261.4,44.1,263.4,44.1 M259.3,53.9c-4.9,0-8.8-1.4-11.8-4.2
	c-2.9-2.8-4.4-6.5-4.4-11.1c0-3.2,0.8-6.1,2.5-8.6s4-4.4,7-5.7s6.4-1.9,10.2-1.9c3.2,0,6.7,0.4,10.5,1.3v-5c0-3-0.6-5.1-1.9-6.3
	c-1.3-1.1-3.6-1.7-6.9-1.7c-4.5,0-9.6,0.8-15.2,2.4c-0.2,0.1-0.4,0.1-0.6,0.1h-0.5c-1.1,0-1.7-0.8-1.7-2.3V6.6
	c0-1.1,0.1-1.8,0.4-2.2s0.9-0.8,1.8-1.2c2.3-1,5.1-1.8,8.4-2.3c3.3-0.6,6.6-0.8,10-0.8c6.8,0,11.8,1.4,14.9,4.1s4.7,7.1,4.7,13v32.7
	c0,0.9-0.2,1.5-0.5,1.9c-0.4,0.4-1,0.6-1.9,0.6h-6.8c-0.8,0-1.4-0.2-1.8-0.5s-0.7-0.9-0.9-1.7l-0.6-2.3c-2.1,1.9-4.4,3.3-7.1,4.4
	C264.5,53.3,261.9,53.9,259.3,53.9L259.3,53.9z M307,52.3c-0.9,0-1.5-0.2-1.9-0.6s-0.6-1-0.6-1.9V4c0-0.9,0.2-1.6,0.6-1.9
	c0.4-0.4,1-0.5,1.9-0.5h7.1c1.5,0,2.4,0.7,2.8,2.2l0.8,2.7c3.5-2.3,6.7-4,9.5-4.9c2.8-1,5.7-1.4,8.7-1.4c6,0,10.2,2.1,12.6,6.4
	c3.4-2.2,6.6-3.9,9.5-4.9c3-1,6.1-1.5,9.2-1.5c4.6,0,8.2,1.3,10.8,3.9c2.5,2.6,3.8,6.2,3.8,10.8v35c0,0.9-0.2,1.5-0.5,1.9
	c-0.4,0.4-1,0.6-1.9,0.6h-9.5c-0.9,0-1.5-0.2-1.9-0.6s-0.6-1-0.6-1.9v-32c0-4.5-2-6.7-6.1-6.7c-3.6,0-7.2,0.9-10.8,2.6v36
	c0,0.9-0.2,1.5-0.5,1.9c-0.4,0.4-1,0.6-1.9,0.6h-9.5c-0.9,0-1.5-0.2-1.9-0.6s-0.6-1-0.6-1.9V17.9c0-4.5-2-6.7-6.1-6.7
	c-3.7,0-7.3,0.9-10.9,2.7v35.9c0,0.9-0.2,1.5-0.5,1.9c-0.4,0.4-1,0.6-1.9,0.6L307,52.3 M416.6,44.1c1.7,0,3.4-0.4,5.1-1.1
	c1.8-0.7,3.4-1.7,4.9-3v-8.6c-2.9-0.5-5.5-0.7-7.8-0.7c-5.8,0-8.6,2.3-8.6,6.9c0,2.1,0.6,3.6,1.7,4.8
	C412.9,43.6,414.5,44.1,416.6,44.1 M412.5,53.9c-4.9,0-8.8-1.4-11.8-4.2c-2.9-2.8-4.4-6.5-4.4-11.1c0-3.2,0.8-6.1,2.5-8.6
	s4-4.4,7-5.7s6.4-1.9,10.2-1.9c3.2,0,6.7,0.4,10.5,1.3v-5c0-3-0.6-5.1-1.9-6.3c-1.3-1.1-3.6-1.7-6.9-1.7c-4.5,0-9.6,0.8-15.2,2.4
	c-0.2,0.1-0.4,0.1-0.6,0.1h-0.5c-1.1,0-1.7-0.8-1.7-2.3V6.6c0-1.1,0.1-1.8,0.4-2.2s0.9-0.8,1.8-1.2c2.3-1,5.1-1.8,8.4-2.3
	c3.3-0.6,6.6-0.8,10-0.8c6.8,0,11.8,1.4,14.9,4.1s4.7,7.1,4.7,13v32.7c0,0.9-0.2,1.5-0.5,1.9c-0.4,0.4-1,0.6-1.9,0.6h-6.8
	c-0.8,0-1.4-0.2-1.8-0.5s-0.7-0.9-0.9-1.7l-0.6-2.3c-2.1,1.9-4.4,3.3-7.1,4.4C417.6,53.3,415,53.9,412.5,53.9L412.5,53.9z
	 M456.4,52.3c-0.9,0-1.5-0.2-1.9-0.6s-0.6-1-0.6-1.9v-5.1c0-1.1,0.1-1.9,0.3-2.4c0.2-0.6,0.6-1.2,1.2-1.9L480,12.3h-22.6
	c-0.9,0-1.5-0.2-1.9-0.6s-0.6-1-0.6-1.9V4c0-0.9,0.2-1.6,0.6-1.9c0.4-0.4,1-0.5,1.9-0.5h36.1c0.9,0,1.6,0.2,1.9,0.5
	c0.4,0.4,0.5,1,0.5,1.9v5.3c0,1.1-0.1,1.9-0.3,2.4c-0.2,0.6-0.6,1.2-1.2,1.9l-24.8,27.9H494c0.9,0,1.6,0.2,1.9,0.5
	c0.4,0.4,0.5,1,0.5,1.9v5.8c0,0.9-0.2,1.5-0.5,1.9c-0.4,0.4-1,0.6-1.9,0.6h-37.6 M532,42.6c6.9,0,10.4-5.3,10.4-15.8
	s-3.5-15.7-10.4-15.7s-10.4,5.2-10.4,15.7C521.6,37.4,525.1,42.6,532,42.6 M532,53.8c-7.9,0-14-2.4-18.5-7.1
	c-4.4-4.7-6.7-11.3-6.7-19.8c0-8.4,2.2-15,6.7-19.7c4.4-4.7,10.6-7.1,18.5-7.1s14,2.4,18.5,7.1c4.4,4.7,6.7,11.3,6.7,19.7
	c0,8.5-2.2,15.1-6.7,19.8S539.9,53.8,532,53.8z M574.8,52.3c-0.9,0-1.5-0.2-1.9-0.6s-0.6-1-0.6-1.9V4c0-0.9,0.2-1.6,0.6-1.9
	c0.4-0.4,1-0.5,1.9-0.5h7.1c1.5,0,2.4,0.7,2.8,2.2l0.9,3.3c6-4.6,12.3-6.9,19.1-6.9c4.7,0,8.3,1.3,10.9,3.8
	c2.5,2.5,3.8,6.2,3.8,10.9v35c0,0.9-0.2,1.5-0.5,1.9s-1,0.6-1.9,0.6h-9.5c-0.9,0-1.5-0.2-1.9-0.6s-0.6-1-0.6-1.9V19
	c0-2.7-0.6-4.7-1.8-6s-3-1.9-5.5-1.9c-3.6,0-7.2,1.1-10.8,3.4v35.2c0,0.9-0.2,1.5-0.5,1.9c-0.4,0.4-1,0.6-1.9,0.6L574.8,52.3"/>
</svg>
