<?xml version="1.0" encoding="utf-8"?>
<!-- Generator: Adobe Illustrator 24.1.0, SVG Export Plug-In . SVG Version: 6.00 Build 0)  -->
<svg version="1.1" id="Layer_1" xmlns="http://www.w3.org/2000/svg" xmlns:xlink="http://www.w3.org/1999/xlink" x="0px" y="0px"
	 viewBox="0 0 238.2 89.6" style="enable-background:new 0 0 238.2 89.6;" xml:space="preserve">
<g>
	<path d="M55.6,33c-0.2,0-0.3,0-0.4-0.1s-0.1-0.2-0.1-0.3s0.1-0.3,0.2-0.6L62,13.8c0.1-0.2,0.2-0.4,0.3-0.5s0.3-0.1,0.5-0.1h2.5
		c0.2,0,0.4,0,0.5,0.1s0.2,0.3,0.3,0.5L72.7,32c0.1,0.3,0.2,0.5,0.2,0.6s0,0.2-0.1,0.3S72.7,33,72.5,33H70c-0.2,0-0.4,0-0.5-0.1
		s-0.2-0.2-0.3-0.4l-1.5-4.4h-7.6l-1.5,4.4c-0.1,0.2-0.2,0.4-0.3,0.5C58.3,33,55.6,33,55.6,33z M67,25.5l-3-9.2l-3,9.2H67z M79.7,33
		c-0.4,0-0.6-0.2-0.6-0.6V13.8c0-0.4,0.2-0.6,0.6-0.6h6.8c2,0,3.6,0.6,4.7,1.7c1.2,1.1,1.7,2.6,1.7,4.5s-0.6,3.4-1.7,4.5
		c-1.2,1.1-2.7,1.7-4.7,1.7h-4v6.8c0,0.4-0.2,0.6-0.6,0.6C81.9,33,79.7,33,79.7,33z M86.1,22.9c1.1,0,1.9-0.3,2.5-0.9
		s0.8-1.5,0.8-2.6s-0.3-2-0.8-2.6c-0.6-0.6-1.4-0.9-2.5-0.9h-3.6v7H86.1z M100.1,33c-0.4,0-0.6-0.2-0.6-0.6V13.8
		c0-0.4,0.2-0.6,0.6-0.6h11.4c0.4,0,0.6,0.2,0.6,0.6v1.5c0,0.4-0.2,0.6-0.6,0.6H103v5.4h7c0.4,0,0.6,0.2,0.6,0.6v1.5
		c0,0.4-0.2,0.6-0.6,0.6h-7v6h8.5c0.4,0,0.6,0.2,0.6,0.6v1.5c0,0.4-0.2,0.6-0.6,0.6h-11.4V33z M119.6,33c-0.4,0-0.6-0.2-0.6-0.6
		V13.8c0-0.4,0.2-0.6,0.6-0.6h2.5c0.2,0,0.4,0,0.6,0.1c0.1,0.1,0.3,0.3,0.4,0.5l8.7,14.3V13.8c0-0.4,0.2-0.6,0.6-0.6h1.9
		c0.4,0,0.6,0.2,0.6,0.6v18.6c0,0.4-0.2,0.6-0.6,0.6h-2.5c-0.4,0-0.7-0.2-0.9-0.6L122.2,18v14.3c0,0.4-0.2,0.6-0.6,0.6h-2V33z
		 M141.5,33c-0.2,0-0.3,0-0.4-0.1s-0.1-0.2-0.1-0.3s0.1-0.3,0.2-0.6l6.7-18.2c0.1-0.2,0.2-0.4,0.3-0.5s0.3-0.1,0.5-0.1h2.5
		c0.2,0,0.4,0,0.5,0.1s0.2,0.3,0.3,0.5l6.6,18.2c0.1,0.3,0.2,0.5,0.2,0.6s0,0.2-0.1,0.3s-0.2,0.1-0.4,0.1H156c-0.2,0-0.4,0-0.5-0.1
		s-0.2-0.2-0.3-0.4l-1.5-4.4h-7.6l-1.5,4.4c-0.1,0.2-0.2,0.4-0.3,0.5s-0.3,0.1-0.5,0.1L141.5,33L141.5,33z M152.9,25.5l-3-9.2
		l-3,9.2H152.9z M170.5,33.5c-0.8,0-1.7-0.1-2.6-0.2l-2.4-0.6c-0.3-0.1-0.5-0.2-0.6-0.3s-0.1-0.3-0.1-0.6v-1.4c0-0.2,0-0.3,0.1-0.4
		s0.2-0.2,0.3-0.2c0.2,0,0.5,0.1,1,0.2c0.6,0.2,1.3,0.3,2.1,0.4l2.2,0.2c1.4,0,2.4-0.2,3.1-0.7s1.1-1.2,1.1-2.1
		c0-0.6-0.2-1.2-0.7-1.6c-0.4-0.4-1.2-0.8-2.3-1.3l-2.5-1c-1.6-0.6-2.8-1.3-3.5-2.2c-0.7-0.8-1.1-1.9-1.1-3.2c0-1.8,0.6-3.2,1.9-4.2
		s2.9-1.6,5.1-1.6c1.4,0,3,0.2,4.6,0.7c0.3,0.1,0.5,0.2,0.6,0.3s0.1,0.3,0.1,0.6v1.4c0,0.2,0,0.3-0.1,0.4s-0.2,0.2-0.3,0.2
		c-0.2,0-0.5-0.1-1-0.2c-1.3-0.3-2.5-0.5-3.7-0.5c-2.5,0-3.8,0.9-3.8,2.5c0,0.6,0.2,1.2,0.7,1.6s1.3,0.8,2.4,1.3l2.4,0.9
		c1.6,0.6,2.8,1.3,3.5,2.1s1.1,1.9,1.1,3.2c0,1.9-0.7,3.4-2,4.5C174.7,33,172.8,33.5,170.5,33.5z M18.6,71.2c-0.4,0-0.6-0.2-0.6-0.6
		V52c0-0.4,0.2-0.6,0.6-0.6h6.8c2,0,3.5,0.5,4.7,1.6s1.7,2.5,1.7,4.3c0,1.3-0.3,2.4-1,3.4c-0.7,1-1.7,1.8-2.9,2.1l4.5,7.4
		c0.2,0.3,0.3,0.6,0.3,0.7c0,0.3-0.2,0.4-0.5,0.4h-2.1c-0.3,0-0.5,0-0.6-0.1c-0.2-0.1-0.3-0.2-0.4-0.4l-4.4-7.4h-3.4v7.2
		c0,0.4-0.2,0.6-0.6,0.6C20.7,71.2,18.6,71.2,18.6,71.2z M25,60.7c2.3,0,3.4-1.1,3.4-3.3s-1.1-3.3-3.4-3.3h-3.7v6.6H25z M44.7,75
		c-0.3,0-0.5-0.2-0.5-0.4c0,0,0,0,0-0.1v-3c-1.6-0.1-3.2-0.5-4.8-1.3l-0.6-0.4c-0.1-0.1-0.1-0.3-0.1-0.5v-1.2c0-0.4,0.1-0.6,0.4-0.6
		c0.2,0,0.4,0.1,0.8,0.3c1.5,0.7,2.9,1.1,4.2,1.2v-6.4L43,62c-1.5-0.6-2.7-1.3-3.4-2.1s-1.1-1.8-1.1-3c0-1.1,0.2-2,0.7-2.8
		s1.2-1.5,2-2s1.8-0.8,2.9-0.8v-3c0-0.3,0.2-0.5,0.4-0.5c0,0,0,0,0.1,0h0.9c0.3,0,0.5,0.2,0.5,0.4c0,0,0,0,0,0.1v3
		c1.3,0.1,2.5,0.5,3.7,1.1l0.6,0.4c0.1,0.1,0.1,0.3,0.1,0.5v1.2c0,0.4-0.1,0.6-0.4,0.6c-0.1,0-0.4-0.1-0.7-0.2
		c-1.2-0.6-2.3-0.9-3.3-1v6.3l1.1,0.4c1.7,0.6,2.9,1.3,3.6,2.1s1,1.8,1,3c0,1.6-0.5,2.9-1.6,3.9c-1,1.1-2.4,1.7-4.2,1.9v3
		c0,0.3-0.2,0.5-0.4,0.5c0,0,0,0-0.1,0C45.4,75,44.7,75,44.7,75z M44.2,53.9c-0.8,0.1-1.5,0.4-2,0.9s-0.7,1.2-0.7,2
		c0,0.7,0.2,1.3,0.6,1.7s1.1,0.8,2.1,1.2C44.2,59.7,44.2,53.9,44.2,53.9z M46.1,68.9c0.8-0.1,1.5-0.4,2-1s0.8-1.2,0.8-2.1
		c0-0.6-0.2-1.2-0.6-1.7c-0.4-0.4-1.1-0.8-2.1-1.2v6L46.1,68.9z"/>
	<g>
		<path id="B" d="M74.9,71.7c-1.4,0-2.9-0.3-4.2-0.9l-0.6-0.4C70,70.3,70,70.1,70,69.8v-1.2c0-0.4,0.1-0.6,0.4-0.6h0.2
			c0.1,0,0.2,0.1,0.4,0.1c1.3,0.5,2.5,0.7,3.6,0.7c1.7,0,2.9-0.5,3.8-1.6c0.8-1,1.3-2.7,1.4-4.9c-1.4,0.9-3,1.3-4.6,1.3
			c-1.8,0-3.3-0.6-4.4-1.7s-1.6-2.6-1.6-4.5c0-1.4,0.3-2.6,0.9-3.6c0.6-1,1.5-1.8,2.5-2.4c1-0.5,2.2-0.8,3.6-0.8
			c2.3,0,4.1,0.8,5.3,2.5c1.2,1.6,1.8,4.1,1.8,7.2c0,3.5-0.7,6.2-2.1,8.1S77.6,71.7,74.9,71.7L74.9,71.7z M76.2,61.2
			c0.6,0,1.2-0.1,1.8-0.2s1.2-0.4,1.8-0.7v-0.2c0-2-0.3-3.6-1-4.7s-1.7-1.7-2.9-1.7c-1,0-1.8,0.3-2.4,1s-0.9,1.6-0.9,2.9
			s0.3,2.1,0.9,2.7C74.2,60.9,75.1,61.2,76.2,61.2z"/>
	</g>
	<path d="M88.9,75.7c-0.2,0-0.3,0-0.4-0.1s-0.1-0.2-0.1-0.3c0-0.2,0-0.4,0.1-0.8l1.2-6.3c0-0.2,0.1-0.4,0.2-0.5s0.3-0.1,0.5-0.1h0.3
		c0.8,0,1.3,0.1,1.6,0.3s0.5,0.5,0.5,0.9s-0.2,1-0.5,1.7l-1.7,4.6c-0.1,0.2-0.2,0.4-0.3,0.4c-0.1,0.1-0.3,0.1-0.5,0.1h-0.9
		L88.9,75.7z"/>
	<g>
		<path id="B_1_" d="M105.4,71.7c-1.4,0-2.9-0.3-4.2-0.9l-0.6-0.4c-0.1-0.1-0.1-0.3-0.1-0.6v-1.2c0-0.4,0.1-0.6,0.4-0.6h0.2
			c0.1,0,0.2,0.1,0.4,0.1c1.3,0.5,2.5,0.7,3.6,0.7c1.7,0,2.9-0.5,3.8-1.6c0.8-1,1.3-2.7,1.4-4.9c-1.4,0.9-3,1.3-4.6,1.3
			c-1.8,0-3.3-0.6-4.4-1.7s-1.6-2.6-1.6-4.5c0-1.4,0.3-2.6,0.9-3.6c0.6-1,1.5-1.8,2.5-2.4c1-0.5,2.2-0.8,3.6-0.8
			c2.3,0,4.1,0.8,5.3,2.5c1.2,1.6,1.8,4.1,1.8,7.2c0,3.5-0.7,6.2-2.1,8.1S108.1,71.7,105.4,71.7L105.4,71.7z M106.7,61.2
			c0.6,0,1.2-0.1,1.8-0.2s1.2-0.4,1.8-0.7v-0.2c0-2-0.3-3.6-1-4.7s-1.7-1.7-2.9-1.7c-1,0-1.8,0.3-2.4,1s-0.9,1.6-0.9,2.9
			s0.3,2.1,0.9,2.7C104.7,60.9,105.6,61.2,106.7,61.2z"/>
	</g>
	<path d="M127.4,71.7c-2.4,0-4.2-0.9-5.5-2.7s-1.9-4.3-1.9-7.7s0.6-5.9,1.9-7.7s3.1-2.7,5.5-2.7s4.2,0.9,5.5,2.7s1.9,4.3,1.9,7.7
		c0,3.4-0.6,5.9-1.9,7.7S129.8,71.7,127.4,71.7z M127.4,68.8c1.4,0,2.3-0.6,3-1.8s0.9-3.1,0.9-5.8s-0.3-4.6-0.9-5.8s-1.6-1.8-3-1.8
		s-2.3,0.6-3,1.8c-0.6,1.2-0.9,3.1-0.9,5.8s0.3,4.6,0.9,5.8S126,68.8,127.4,68.8z M139.2,74.5c-0.3,0-0.5-0.1-0.5-0.4
		c0-0.1,0.1-0.4,0.2-0.7l9.2-24.1c0.1-0.2,0.2-0.3,0.2-0.4c0.1-0.1,0.3-0.1,0.5-0.1h2.1c0.3,0,0.5,0.1,0.5,0.4
		c0,0.1-0.1,0.4-0.2,0.7l-9.2,24c-0.1,0.2-0.2,0.3-0.2,0.4c-0.1,0.1-0.3,0.1-0.5,0.1L139.2,74.5L139.2,74.5z M157.9,71.2
		c-0.4,0-0.6-0.2-0.6-0.6V52c0-0.4,0.2-0.6,0.6-0.6h2.6c0.2,0,0.4,0,0.6,0.1s0.2,0.2,0.3,0.4l5.7,11.3l5.8-11.3
		c0.1-0.2,0.2-0.4,0.3-0.4s0.3-0.1,0.6-0.1h2.5c0.4,0,0.6,0.2,0.6,0.6v18.6c0,0.4-0.2,0.6-0.6,0.6h-1.9c-0.4,0-0.6-0.2-0.6-0.6V56.4
		l-4.9,9.3c-0.1,0.2-0.2,0.4-0.3,0.5s-0.3,0.1-0.5,0.1H166c-0.2,0-0.4,0-0.6-0.1c-0.1-0.1-0.2-0.2-0.4-0.5l-4.7-9.3v14.2
		c0,0.4-0.2,0.6-0.6,0.6L157.9,71.2L157.9,71.2z M185.6,71.2c-0.4,0-0.6-0.2-0.6-0.6V52c0-0.4,0.2-0.6,0.6-0.6H197
		c0.4,0,0.6,0.2,0.6,0.6v1.5c0,0.4-0.2,0.6-0.6,0.6h-8.5v5.4h7c0.4,0,0.6,0.2,0.6,0.6v1.5c0,0.4-0.2,0.6-0.6,0.6h-7v6h8.5
		c0.4,0,0.6,0.2,0.6,0.6v1.5c0,0.4-0.2,0.6-0.6,0.6h-11.4L185.6,71.2z M186.7,49.2c-0.2,0-0.3,0-0.4-0.1s-0.1-0.2-0.1-0.3
		s0-0.2,0.1-0.3c0.1-0.1,0.2-0.2,0.3-0.4l2.8-2.8c0.1-0.1,0.3-0.1,0.5-0.1h2.5c0.2,0,0.4,0,0.5,0.1s0.3,0.2,0.4,0.4l2.4,2.4
		c0.2,0.2,0.3,0.3,0.3,0.4c0.1,0.1,0.1,0.2,0.1,0.3s0,0.2-0.1,0.3s-0.2,0.1-0.4,0.1H194c-0.3,0-0.6-0.1-0.9-0.4l-2-1.8l-2,1.8
		c-0.3,0.3-0.6,0.4-0.9,0.4L186.7,49.2L186.7,49.2z M209.5,71.7c-0.8,0-1.7-0.1-2.6-0.2l-2.4-0.6c-0.3-0.1-0.5-0.2-0.6-0.3
		s-0.1-0.3-0.1-0.6v-1.4c0-0.2,0-0.3,0.1-0.4s0.2-0.2,0.3-0.2c0.2,0,0.5,0.1,1,0.2c0.6,0.2,1.3,0.3,2.1,0.4l2.2,0.2
		c1.4,0,2.4-0.2,3.1-0.7s1.1-1.2,1.1-2.1c0-0.6-0.2-1.2-0.7-1.6c-0.4-0.4-1.2-0.8-2.3-1.3l-2.5-1c-1.6-0.6-2.8-1.3-3.5-2.2
		c-0.7-0.8-1.1-1.9-1.1-3.2c0-1.8,0.6-3.2,1.9-4.2s2.9-1.6,5.1-1.6c1.4,0,3,0.2,4.6,0.7c0.3,0.1,0.5,0.2,0.6,0.3s0.1,0.3,0.1,0.6V54
		c0,0.2,0,0.3-0.1,0.4s-0.2,0.2-0.3,0.2c-0.2,0-0.5-0.1-1-0.2c-1.3-0.3-2.5-0.5-3.7-0.5c-2.5,0-3.8,0.8-3.8,2.5
		c0,0.6,0.2,1.2,0.7,1.6s1.3,0.8,2.4,1.3l2.4,0.9c1.6,0.6,2.8,1.3,3.5,2.1s1.1,1.9,1.1,3.2c0,1.9-0.7,3.4-2,4.5
		C213.8,71.2,211.9,71.7,209.5,71.7z"/>
</g>
</svg>
